<?xml version="1.0" encoding="UTF-8"?>
<svg id="Capa_2" data-name="Capa 2" xmlns="http://www.w3.org/2000/svg" viewBox="0 0 157.73 217.18">
  <defs>
    <style>
      .cls-1 {
        fill: #f6b40e;
      }

      .cls-1, .cls-2, .cls-3 {
        stroke: #000;
        stroke-miterlimit: 10;
      }

      .cls-2 {
        fill: #fff;
      }

      .cls-3 {
        fill: #74acdf;
      }
    </style>
  </defs>
  <path class="cls-3" d="m109.7.52s-29.46,1.41-30.83,37.85c0,0,9.08,4.52,24.34-13.28,0,0,7.63-6.21,6.5-24.58Z"/>
  <path class="cls-3" d="m78.87,46.85l11.34-3.67s26.55-15.25,47.74,11.3c0,0-20.9,14.12-16.38,36.16,0,0,4.51,22.88,20.34,28.53,0,0-12.2,37.01-32.09,42.94,0,0-7.74-.28-17.06-4.24,0,0-11.58-6.21-25.71,1.69,0,0-11.86,7.63-23.45-2.82,0,0-45.76-45.2-20.34-98.87,0,0,9.89-16.38,24.58-17.8,0,0,7.26-4.24,31.03,6.78Z"/>
  <path class="cls-2" d="m16.07,82.64l106.19-7.06s-4.92,16.22,8.46,35.17l-110.41,7.77s-5.11-16.8-4.24-35.88Z"/>
  <circle class="cls-1" cx="75.3" cy="97.05" r="14.63"/>
</svg>